<?xml version="1.0" standalone="no"?>
<!DOCTYPE svg PUBLIC "-//W3C//DTD SVG 20010904//EN"
 "http://www.w3.org/TR/2001/REC-SVG-20010904/DTD/svg10.dtd">
<svg version="1.0" xmlns="http://www.w3.org/2000/svg"
 width="72.000000pt" height="70.000000pt" viewBox="0 0 72.000000 70.000000"
 preserveAspectRatio="xMidYMid meet">

<g transform="translate(0.000000,70.000000) scale(0.100000,-0.100000)"
fill="#000000" stroke="none">
<path d="M468 668 c-48 -13 -104 -68 -117 -116 -16 -54 -14 -109 4 -115 19 -8
21 -3 30 63 6 45 14 62 45 92 34 34 43 38 90 38 47 0 56 -4 91 -39 35 -35 39
-44 39 -88 0 -36 -6 -58 -21 -77 -41 -52 -61 -56 -279 -56 -220 0 -236 -3
-284 -60 -108 -129 14 -321 179 -279 55 14 110 66 124 117 16 54 14 109 -4
115 -19 8 -21 3 -30 -63 -6 -45 -14 -62 -45 -92 -34 -34 -43 -38 -90 -38 -47
0 -56 4 -91 39 -35 35 -39 44 -39 88 0 36 6 58 21 77 41 52 61 56 279 56 220
0 236 3 284 60 110 131 -18 324 -186 278z"/>
</g>
</svg>
